<svg width="652" height="82" viewBox="0 0 652 82" fill="none" xmlns="http://www.w3.org/2000/svg">
<g clip-path="url(#clip0_7_17)">
<path d="M86.8873 25.9583L76.493 7L43 72H125L97.2817 25.9583L84 51.6875" stroke="black" stroke-width="9"/>
<path d="M146.814 59V17H155.934L169.314 43.64L182.514 17H191.634V59H183.954V30.02L172.254 53H166.194L154.494 30.02V59H146.814ZM203.743 24.62C202.343 24.62 201.183 24.2 200.263 23.36C199.383 22.52 198.943 21.46 198.943 20.18C198.943 18.9 199.383 17.86 200.263 17.06C201.183 16.22 202.343 15.8 203.743 15.8C205.143 15.8 206.283 16.22 207.163 17.06C208.083 17.86 208.543 18.9 208.543 20.18C208.543 21.46 208.083 22.52 207.163 23.36C206.283 24.2 205.143 24.62 203.743 24.62ZM199.903 59V29.24H207.583V59H199.903ZM215.599 59V15.8H223.279V59H215.599ZM231.127 59V15.8H238.807V59H231.127ZM261.114 59.72C258.114 59.72 255.454 59.08 253.134 57.8C250.814 56.52 248.994 54.72 247.674 52.4C246.354 50.08 245.694 47.4 245.694 44.36C245.694 41.28 246.334 38.54 247.614 36.14C248.934 33.74 250.734 31.88 253.014 30.56C255.334 29.2 258.054 28.52 261.174 28.52C264.094 28.52 266.674 29.16 268.914 30.44C271.154 31.72 272.894 33.48 274.134 35.72C275.414 37.92 276.054 40.38 276.054 43.1C276.054 43.54 276.034 44 275.994 44.48C275.994 44.96 275.974 45.46 275.934 45.98H253.314C253.474 48.3 254.274 50.12 255.714 51.44C257.194 52.76 258.974 53.42 261.054 53.42C262.614 53.42 263.914 53.08 264.954 52.4C266.034 51.68 266.834 50.76 267.354 49.64H275.154C274.594 51.52 273.654 53.24 272.334 54.8C271.054 56.32 269.454 57.52 267.534 58.4C265.654 59.28 263.514 59.72 261.114 59.72ZM261.174 34.76C259.294 34.76 257.634 35.3 256.194 36.38C254.754 37.42 253.834 39.02 253.434 41.18H268.254C268.134 39.22 267.414 37.66 266.094 36.5C264.774 35.34 263.134 34.76 261.174 34.76ZM282.513 59V29.24H289.293L289.893 34.28C290.813 32.52 292.133 31.12 293.853 30.08C295.613 29.04 297.673 28.52 300.033 28.52C303.713 28.52 306.573 29.68 308.613 32C310.653 34.32 311.673 37.72 311.673 42.2V59H303.993V42.92C303.993 40.36 303.473 38.4 302.433 37.04C301.393 35.68 299.773 35 297.573 35C295.413 35 293.633 35.76 292.233 37.28C290.873 38.8 290.193 40.92 290.193 43.64V59H282.513ZM319.017 59V29.24H325.797L326.397 34.28C327.317 32.52 328.637 31.12 330.357 30.08C332.117 29.04 334.177 28.52 336.537 28.52C340.217 28.52 343.077 29.68 345.117 32C347.157 34.32 348.177 37.72 348.177 42.2V59H340.497V42.92C340.497 40.36 339.977 38.4 338.937 37.04C337.897 35.68 336.277 35 334.077 35C331.917 35 330.137 35.76 328.737 37.28C327.377 38.8 326.697 40.92 326.697 43.64V59H319.017ZM359.661 24.62C358.261 24.62 357.101 24.2 356.181 23.36C355.301 22.52 354.861 21.46 354.861 20.18C354.861 18.9 355.301 17.86 356.181 17.06C357.101 16.22 358.261 15.8 359.661 15.8C361.061 15.8 362.201 16.22 363.081 17.06C364.001 17.86 364.461 18.9 364.461 20.18C364.461 21.46 364.001 22.52 363.081 23.36C362.201 24.2 361.061 24.62 359.661 24.62ZM355.821 59V29.24H363.501V59H355.821ZM381.777 59.72C379.217 59.72 377.117 59.32 375.477 58.52C373.837 57.68 372.617 56.58 371.817 55.22C371.017 53.86 370.617 52.36 370.617 50.72C370.617 47.96 371.697 45.72 373.857 44C376.017 42.28 379.257 41.42 383.577 41.42H391.137V40.7C391.137 38.66 390.557 37.16 389.397 36.2C388.237 35.24 386.797 34.76 385.077 34.76C383.517 34.76 382.157 35.14 380.997 35.9C379.837 36.62 379.117 37.7 378.837 39.14H371.337C371.537 36.98 372.257 35.1 373.497 33.5C374.777 31.9 376.417 30.68 378.417 29.84C380.417 28.96 382.657 28.52 385.137 28.52C389.377 28.52 392.717 29.58 395.157 31.7C397.597 33.82 398.817 36.82 398.817 40.7V59H392.277L391.557 54.2C390.677 55.8 389.437 57.12 387.837 58.16C386.277 59.2 384.257 59.72 381.777 59.72ZM383.517 53.72C385.717 53.72 387.417 53 388.617 51.56C389.857 50.12 390.637 48.34 390.957 46.22H384.417C382.377 46.22 380.917 46.6 380.037 47.36C379.157 48.08 378.717 48.98 378.717 50.06C378.717 51.22 379.157 52.12 380.037 52.76C380.917 53.4 382.077 53.72 383.517 53.72ZM406.146 59V15.8H413.826V59H406.146ZM444.67 59L433.57 17H441.79L449.35 50.42L458.23 17H466.69L475.33 50.42L482.89 17H491.17L479.77 59H470.65L462.31 27.86L453.73 59H444.67ZM507.852 59.72C504.852 59.72 502.192 59.08 499.872 57.8C497.552 56.52 495.732 54.72 494.412 52.4C493.092 50.08 492.432 47.4 492.432 44.36C492.432 41.28 493.072 38.54 494.352 36.14C495.672 33.74 497.472 31.88 499.752 30.56C502.072 29.2 504.792 28.52 507.912 28.52C510.832 28.52 513.412 29.16 515.652 30.44C517.892 31.72 519.632 33.48 520.872 35.72C522.152 37.92 522.792 40.38 522.792 43.1C522.792 43.54 522.772 44 522.732 44.48C522.732 44.96 522.712 45.46 522.672 45.98H500.052C500.212 48.3 501.012 50.12 502.452 51.44C503.932 52.76 505.712 53.42 507.792 53.42C509.352 53.42 510.652 53.08 511.692 52.4C512.772 51.68 513.572 50.76 514.092 49.64H521.892C521.332 51.52 520.392 53.24 519.072 54.8C517.792 56.32 516.192 57.52 514.272 58.4C512.392 59.28 510.252 59.72 507.852 59.72ZM507.912 34.76C506.032 34.76 504.372 35.3 502.932 36.38C501.492 37.42 500.572 39.02 500.172 41.18H514.992C514.872 39.22 514.152 37.66 512.832 36.5C511.512 35.34 509.872 34.76 507.912 34.76ZM539.512 59.72C536.952 59.72 534.852 59.32 533.212 58.52C531.572 57.68 530.352 56.58 529.552 55.22C528.752 53.86 528.352 52.36 528.352 50.72C528.352 47.96 529.432 45.72 531.592 44C533.752 42.28 536.992 41.42 541.312 41.42H548.872V40.7C548.872 38.66 548.292 37.16 547.132 36.2C545.972 35.24 544.532 34.76 542.812 34.76C541.252 34.76 539.892 35.14 538.732 35.9C537.572 36.62 536.852 37.7 536.572 39.14H529.072C529.272 36.98 529.992 35.1 531.232 33.5C532.512 31.9 534.152 30.68 536.152 29.84C538.152 28.96 540.392 28.52 542.872 28.52C547.112 28.52 550.452 29.58 552.892 31.7C555.332 33.82 556.552 36.82 556.552 40.7V59H550.012L549.292 54.2C548.412 55.8 547.172 57.12 545.572 58.16C544.012 59.2 541.992 59.72 539.512 59.72ZM541.252 53.72C543.452 53.72 545.152 53 546.352 51.56C547.592 50.12 548.372 48.34 548.692 46.22H542.152C540.112 46.22 538.652 46.6 537.772 47.36C536.892 48.08 536.452 48.98 536.452 50.06C536.452 51.22 536.892 52.12 537.772 52.76C538.652 53.4 539.812 53.72 541.252 53.72ZM563.88 59V15.8H571.56V59H563.88ZM592.668 59C589.548 59 587.048 58.24 585.168 56.72C583.288 55.2 582.348 52.5 582.348 48.62V35.66H577.248V29.24H582.348L583.248 21.26H590.028V29.24H598.068V35.66H590.028V48.68C590.028 50.12 590.328 51.12 590.928 51.68C591.568 52.2 592.648 52.46 594.168 52.46H597.888V59H592.668ZM604.662 59V15.8H612.342V33.8C613.342 32.16 614.682 30.88 616.362 29.96C618.082 29 620.042 28.52 622.242 28.52C625.922 28.52 628.762 29.68 630.762 32C632.802 34.32 633.822 37.72 633.822 42.2V59H626.202V42.92C626.202 40.36 625.682 38.4 624.642 37.04C623.642 35.68 622.042 35 619.842 35C617.682 35 615.882 35.76 614.442 37.28C613.042 38.8 612.342 40.92 612.342 43.64V59H604.662Z" fill="black"/>
</g>
<defs>
<clipPath id="clip0_7_17">
<rect width="652" height="82" fill="white"/>
</clipPath>
</defs>
</svg>
