<svg width="489" height="82" viewBox="0 0 489 82" fill="none" xmlns="http://www.w3.org/2000/svg">
<path d="M80 31L71 17L42 65H113L89 31L77.5 50" stroke="black" stroke-width="6"/>
<path d="M126.876 59V31H132.956L141.876 48.76L150.676 31H156.756V59H151.636V39.68L143.836 55H139.796L131.996 39.68V59H126.876ZM164.829 36.08C163.895 36.08 163.122 35.8 162.509 35.24C161.922 34.68 161.629 33.9733 161.629 33.12C161.629 32.2667 161.922 31.5733 162.509 31.04C163.122 30.48 163.895 30.2 164.829 30.2C165.762 30.2 166.522 30.48 167.109 31.04C167.722 31.5733 168.029 32.2667 168.029 33.12C168.029 33.9733 167.722 34.68 167.109 35.24C166.522 35.8 165.762 36.08 164.829 36.08ZM162.269 59V39.16H167.389V59H162.269ZM172.733 59V30.2H177.853V59H172.733ZM183.084 59V30.2H188.204V59H183.084ZM203.076 59.48C201.076 59.48 199.303 59.0533 197.756 58.2C196.209 57.3467 194.996 56.1467 194.116 54.6C193.236 53.0533 192.796 51.2667 192.796 49.24C192.796 47.1867 193.223 45.36 194.076 43.76C194.956 42.16 196.156 40.92 197.676 40.04C199.223 39.1333 201.036 38.68 203.116 38.68C205.063 38.68 206.783 39.1067 208.276 39.96C209.769 40.8133 210.929 41.9867 211.756 43.48C212.609 44.9467 213.036 46.5867 213.036 48.4C213.036 48.6933 213.023 49 212.996 49.32C212.996 49.64 212.983 49.9733 212.956 50.32H197.876C197.983 51.8667 198.516 53.08 199.476 53.96C200.463 54.84 201.649 55.28 203.036 55.28C204.076 55.28 204.943 55.0533 205.636 54.6C206.356 54.12 206.889 53.5067 207.236 52.76H212.436C212.063 54.0133 211.436 55.16 210.556 56.2C209.703 57.2133 208.636 58.0133 207.356 58.6C206.103 59.1867 204.676 59.48 203.076 59.48ZM203.116 42.84C201.863 42.84 200.756 43.2 199.796 43.92C198.836 44.6133 198.223 45.68 197.956 47.12H207.836C207.756 45.8133 207.276 44.7733 206.396 44C205.516 43.2267 204.423 42.84 203.116 42.84ZM217.342 59V39.16H221.862L222.262 42.52C222.876 41.3467 223.756 40.4133 224.902 39.72C226.076 39.0267 227.449 38.68 229.022 38.68C231.476 38.68 233.382 39.4533 234.742 41C236.102 42.5467 236.782 44.8133 236.782 47.8V59H231.662V48.28C231.662 46.5733 231.316 45.2667 230.622 44.36C229.929 43.4533 228.849 43 227.382 43C225.942 43 224.756 43.5067 223.822 44.52C222.916 45.5333 222.462 46.9467 222.462 48.76V59H217.342ZM241.678 59V39.16H246.198L246.598 42.52C247.211 41.3467 248.091 40.4133 249.238 39.72C250.411 39.0267 251.785 38.68 253.358 38.68C255.811 38.68 257.718 39.4533 259.078 41C260.438 42.5467 261.118 44.8133 261.118 47.8V59H255.998V48.28C255.998 46.5733 255.651 45.2667 254.958 44.36C254.265 43.4533 253.185 43 251.718 43C250.278 43 249.091 43.5067 248.158 44.52C247.251 45.5333 246.798 46.9467 246.798 48.76V59H241.678ZM268.774 36.08C267.841 36.08 267.067 35.8 266.454 35.24C265.867 34.68 265.574 33.9733 265.574 33.12C265.574 32.2667 265.867 31.5733 266.454 31.04C267.067 30.48 267.841 30.2 268.774 30.2C269.707 30.2 270.467 30.48 271.054 31.04C271.667 31.5733 271.974 32.2667 271.974 33.12C271.974 33.9733 271.667 34.68 271.054 35.24C270.467 35.8 269.707 36.08 268.774 36.08ZM266.214 59V39.16H271.334V59H266.214ZM283.518 59.48C281.811 59.48 280.411 59.2133 279.318 58.68C278.225 58.12 277.411 57.3867 276.878 56.48C276.345 55.5733 276.078 54.5733 276.078 53.48C276.078 51.64 276.798 50.1467 278.238 49C279.678 47.8533 281.838 47.28 284.718 47.28H289.758V46.8C289.758 45.44 289.371 44.44 288.598 43.8C287.825 43.16 286.865 42.84 285.718 42.84C284.678 42.84 283.771 43.0933 282.998 43.6C282.225 44.08 281.745 44.8 281.558 45.76H276.558C276.691 44.32 277.171 43.0667 277.998 42C278.851 40.9333 279.945 40.12 281.278 39.56C282.611 38.9733 284.105 38.68 285.758 38.68C288.585 38.68 290.811 39.3867 292.438 40.8C294.065 42.2133 294.878 44.2133 294.878 46.8V59H290.518L290.038 55.8C289.451 56.8667 288.625 57.7467 287.558 58.44C286.518 59.1333 285.171 59.48 283.518 59.48ZM284.678 55.48C286.145 55.48 287.278 55 288.078 54.04C288.905 53.08 289.425 51.8933 289.638 50.48H285.278C283.918 50.48 282.945 50.7333 282.358 51.24C281.771 51.72 281.478 52.32 281.478 53.04C281.478 53.8133 281.771 54.4133 282.358 54.84C282.945 55.2667 283.718 55.48 284.678 55.48ZM299.764 59V30.2H304.884V59H299.764ZM325.447 59L318.047 31H323.527L328.567 53.28L334.487 31H340.127L345.887 53.28L350.927 31H356.447L348.847 59H342.767L337.207 38.24L331.487 59H325.447ZM367.568 59.48C365.568 59.48 363.795 59.0533 362.248 58.2C360.701 57.3467 359.488 56.1467 358.608 54.6C357.728 53.0533 357.288 51.2667 357.288 49.24C357.288 47.1867 357.715 45.36 358.568 43.76C359.448 42.16 360.648 40.92 362.168 40.04C363.715 39.1333 365.528 38.68 367.608 38.68C369.555 38.68 371.275 39.1067 372.768 39.96C374.261 40.8133 375.421 41.9867 376.248 43.48C377.101 44.9467 377.528 46.5867 377.528 48.4C377.528 48.6933 377.515 49 377.488 49.32C377.488 49.64 377.475 49.9733 377.448 50.32H362.368C362.475 51.8667 363.008 53.08 363.968 53.96C364.955 54.84 366.141 55.28 367.528 55.28C368.568 55.28 369.435 55.0533 370.128 54.6C370.848 54.12 371.381 53.5067 371.728 52.76H376.928C376.555 54.0133 375.928 55.16 375.048 56.2C374.195 57.2133 373.128 58.0133 371.848 58.6C370.595 59.1867 369.168 59.48 367.568 59.48ZM367.608 42.84C366.355 42.84 365.248 43.2 364.288 43.92C363.328 44.6133 362.715 45.68 362.448 47.12H372.328C372.248 45.8133 371.768 44.7733 370.888 44C370.008 43.2267 368.915 42.84 367.608 42.84ZM388.674 59.48C386.968 59.48 385.568 59.2133 384.474 58.68C383.381 58.12 382.568 57.3867 382.034 56.48C381.501 55.5733 381.234 54.5733 381.234 53.48C381.234 51.64 381.954 50.1467 383.394 49C384.834 47.8533 386.994 47.28 389.874 47.28H394.914V46.8C394.914 45.44 394.528 44.44 393.754 43.8C392.981 43.16 392.021 42.84 390.874 42.84C389.834 42.84 388.928 43.0933 388.154 43.6C387.381 44.08 386.901 44.8 386.714 45.76H381.714C381.848 44.32 382.328 43.0667 383.154 42C384.008 40.9333 385.101 40.12 386.434 39.56C387.768 38.9733 389.261 38.68 390.914 38.68C393.741 38.68 395.968 39.3867 397.594 40.8C399.221 42.2133 400.034 44.2133 400.034 46.8V59H395.674L395.194 55.8C394.608 56.8667 393.781 57.7467 392.714 58.44C391.674 59.1333 390.328 59.48 388.674 59.48ZM389.834 55.48C391.301 55.48 392.434 55 393.234 54.04C394.061 53.08 394.581 51.8933 394.794 50.48H390.434C389.074 50.48 388.101 50.7333 387.514 51.24C386.928 51.72 386.634 52.32 386.634 53.04C386.634 53.8133 386.928 54.4133 387.514 54.84C388.101 55.2667 388.874 55.48 389.834 55.48ZM404.92 59V30.2H410.04V59H404.92ZM424.112 59C422.032 59 420.365 58.4933 419.112 57.48C417.859 56.4667 417.232 54.6667 417.232 52.08V43.44H413.832V39.16H417.232L417.832 33.84H422.352V39.16H427.712V43.44H422.352V52.12C422.352 53.08 422.552 53.7467 422.952 54.12C423.379 54.4667 424.099 54.64 425.112 54.64H427.592V59H424.112ZM432.108 59V30.2H437.228V42.2C437.894 41.1067 438.788 40.2533 439.908 39.64C441.054 39 442.361 38.68 443.828 38.68C446.281 38.68 448.174 39.4533 449.508 41C450.868 42.5467 451.548 44.8133 451.548 47.8V59H446.468V48.28C446.468 46.5733 446.121 45.2667 445.428 44.36C444.761 43.4533 443.694 43 442.228 43C440.788 43 439.588 43.5067 438.628 44.52C437.694 45.5333 437.228 46.9467 437.228 48.76V59H432.108Z" fill="black"/>
</svg>
